# xmcd CD database file
#
# Track frame offsets:
#	150
#	54961
#	104351
#	132746
#	155265
#	180493
#	213719
#	245952
#	271959
#	286683
#
# Disc length: 4668 seconds
#
# Revision: 0
# Processed by: cddbd v1.5.2PL0 Copyright (c) Steve Scherf et al.
# Submitted via: CDex 1.83
#
DISCID=94123a0a
DTITLE=John Coltrane - Soultrane 1-6 Kenny Burrell &
DYEAR=1958
DGENRE=Jazz
TTITLE0=Good Bait
TTITLE1=I Want To Talk About You
TTITLE2=You Say You Care
TTITLE3=Theme For Ernie
TTITLE4=Russian Lullabye
TTITLE5=Freight Trane
TTITLE6=I Never Knew
TTITLE7=Lyresto
TTITLE8=Why Was I Born
TTITLE9=Big Paul
EXTD=YEAR: 1958
EXTT0=
EXTT1=
EXTT2=
EXTT3=
EXTT4=
EXTT5=
EXTT6=
EXTT7=
EXTT8=
EXTT9=
PLAYORDER=
